<?xml version="1.0" encoding="utf-8"?>
<!-- Generator: Adobe Illustrator 25.3.1, SVG Export Plug-In . SVG Version: 6.00 Build 0)  -->
<svg version="1.1" xmlns="http://www.w3.org/2000/svg" xmlns:xlink="http://www.w3.org/1999/xlink" x="0px" y="0px"
	 viewBox="0 0 1920 5400" style="enable-background:new 0 0 1920 5400;" xml:space="preserve">
<style type="text/css">
	.st0{opacity:0.56;fill:#29ABE2;enable-background:new    ;}
	.st1{fill:#29ABE2;}
	.st2{display:none;}
	.st3{display:inline;fill:none;stroke:#000000;stroke-miterlimit:10;}
	.st4{fill:#333333;}
	.st5{fill:#333333;stroke:#333333;stroke-miterlimit:10;}
	.st6{opacity:0.68;fill:#333333;stroke:#333333;stroke-miterlimit:10;enable-background:new    ;}
</style>
<g id="Fond">
	<g id="Calque_4">
		
			<rect x="-252.5" y="373.6" transform="matrix(0.906 -0.4232 0.4232 0.906 -128.5777 444.8821)" class="st0" width="2380" height="276.8"/>
		
			<rect x="-240.9" y="398.4" transform="matrix(0.906 -0.4232 0.4232 0.906 -137.9953 452.124)" class="st1" width="2380" height="276.8"/>
		
			<rect x="820.9" y="1188.2" transform="matrix(0.5195 -0.8545 0.8545 0.5195 -1602.5371 2009.3392)" class="st0" width="328.7" height="2482.7"/>
		
			<rect x="809.5" y="1207" transform="matrix(0.5195 -0.8545 0.8545 0.5195 -1624.1172 2008.6093)" class="st1" width="328.7" height="2482.7"/>
		
			<rect x="-954.5" y="3544.8" transform="matrix(0.5195 -0.8545 0.8545 0.5195 -2669.5601 2671.1282)" class="st0" width="3989.4" height="328.7"/>
		
			<rect x="-930" y="3559.7" transform="matrix(0.5195 -0.8545 0.8545 0.5195 -2670.5146 2699.144)" class="st1" width="3989.4" height="328.7"/>
	</g>
	<g id="Calque_1_1_" class="st2">
		<line class="st3" x1="0" y1="0" x2="0" y2="944.3"/>
		<line class="st3" x1="0" y1="944.3" x2="0" y2="1888.5"/>
		<line class="st3" x1="0" y1="1888.5" x2="0" y2="2832.8"/>
		<line class="st3" x1="0" y1="2827.6" x2="0" y2="3771.9"/>
		<line class="st3" x1="0" y1="3771.9" x2="0" y2="4716.2"/>
		<line class="st3" x1="0" y1="944.3" x2="1920" y2="944.3"/>
		<line class="st3" x1="0" y1="1888.5" x2="1920" y2="1888.5"/>
		<line class="st3" x1="0" y1="2832.8" x2="1920" y2="2832.8"/>
		<line class="st3" x1="0" y1="3771.9" x2="1920" y2="3771.9"/>
		<line class="st3" x1="-9.4" y1="4716.2" x2="1910.6" y2="4716.2"/>
	</g>
</g>
<g id="Formes">
	<g>
		<g>
			
				<rect x="149.6" y="1888.5" transform="matrix(3.464102e-07 1 -1 3.464102e-07 2075.5698 1738.8796)" class="st4" width="37.4" height="37.4"/>
			
				<rect x="149.6" y="1925.9" transform="matrix(3.464102e-07 1 -1 3.464102e-07 2112.9797 1776.2896)" class="st4" width="37.4" height="37.4"/>
			
				<rect x="149.6" y="1963.3" transform="matrix(3.464102e-07 1 -1 3.464102e-07 2150.3899 1813.6995)" class="st4" width="37.4" height="37.4"/>
			
				<rect x="74.8" y="2000.8" transform="matrix(3.464102e-07 1 -1 3.464102e-07 2112.98 1925.9293)" class="st4" width="37.4" height="37.4"/>
			
				<rect x="112.2" y="2000.8" transform="matrix(3.464102e-07 1 -1 3.464102e-07 2150.3899 1888.5194)" class="st4" width="37.4" height="37.4"/>
			
				<rect x="149.6" y="2000.8" transform="matrix(3.464102e-07 1 -1 3.464102e-07 2187.7998 1851.1094)" class="st4" width="37.4" height="37.4"/>
			
				<rect x="74.8" y="2038.2" transform="matrix(3.464102e-07 1 -1 3.464102e-07 2150.3899 1963.3392)" class="st4" width="37.4" height="37.4"/>
			
				<rect x="0" y="2075.6" transform="matrix(3.464102e-07 1 -1 3.464102e-07 2112.98 2075.5691)" class="st4" width="37.4" height="37.4"/>
			
				<rect x="37.4" y="2075.6" transform="matrix(3.464102e-07 1 -1 3.464102e-07 2150.3899 2038.1592)" class="st4" width="37.4" height="37.4"/>
			
				<rect x="299.3" y="1888.5" transform="matrix(3.464103e-07 1 -1 3.464103e-07 2225.2097 1589.2397)" class="st4" width="37.4" height="37.4"/>
			
				<rect x="299.3" y="2000.8" transform="matrix(3.464103e-07 1 -1 3.464103e-07 2337.4395 1701.4695)" class="st4" width="37.4" height="37.4"/>
			
				<rect x="0" y="2225.2" transform="matrix(3.464102e-07 1 -1 3.464102e-07 2262.6199 2225.209)" class="st4" width="37.4" height="37.4"/>
			
				<rect x="112.2" y="2225.2" transform="matrix(3.464102e-07 1 -1 3.464102e-07 2374.8496 2112.979)" class="st4" width="37.4" height="37.4"/>
			<path class="st4" d="M224.5,2176.5v-14.7c0-6.3,5.1-11.3,11.3-11.3h14.7c6.3,0,11.3,5.1,11.3,11.3v14.7c0,6.3-5.1,11.3-11.3,11.3
				h-14.7C229.5,2187.8,224.5,2182.7,224.5,2176.5z"/>
			
				<rect x="0" y="1888.5" transform="matrix(3.464102e-07 1 -1 3.464102e-07 1925.9302 1888.5195)" class="st4" width="37.4" height="37.4"/>
			
				<rect x="37.4" y="1888.5" transform="matrix(3.464102e-07 1 -1 3.464102e-07 1963.3401 1851.1095)" class="st4" width="37.4" height="37.4"/>
			
				<rect x="37.4" y="1925.9" transform="matrix(3.464102e-07 1 -1 3.464102e-07 2000.75 1888.5194)" class="st4" width="37.4" height="37.4"/>
			
				<rect x="74.8" y="1925.9" transform="matrix(3.464102e-07 1 -1 3.464102e-07 2038.16 1851.1095)" class="st4" width="37.4" height="37.4"/>
			
				<rect x="0" y="1963.3" transform="matrix(3.464102e-07 1 -1 3.464102e-07 2000.7501 1963.3394)" class="st4" width="37.4" height="37.4"/>
			
				<rect x="0" y="2000.8" transform="matrix(3.464102e-07 1 -1 3.464102e-07 2038.16 2000.7493)" class="st4" width="37.4" height="37.4"/>
			
				<rect x="74.8" y="1888.5" transform="matrix(3.464103e-07 1 -1 3.464103e-07 2000.75 1813.6996)" class="st4" width="37.4" height="37.4"/>
			
				<rect x="0" y="1925.9" transform="matrix(3.464102e-07 1 -1 3.464102e-07 1963.3401 1925.9294)" class="st4" width="37.4" height="37.4"/>
			
				<rect x="74.8" y="2075.6" transform="matrix(3.464102e-07 1 -1 3.464102e-07 2187.7998 2000.7491)" class="st4" width="37.4" height="37.4"/>
			
				<rect x="149.6" y="2075.6" transform="matrix(3.464102e-07 1 -1 3.464102e-07 2262.6196 1925.9293)" class="st4" width="37.4" height="37.4"/>
			
				<rect x="149.6" y="2113" transform="matrix(3.464102e-07 1 -1 3.464102e-07 2300.0298 1963.3392)" class="st4" width="37.4" height="37.4"/>
			
				<rect x="0" y="2150.4" transform="matrix(3.464102e-07 1 -1 3.464102e-07 2187.8 2150.3889)" class="st4" width="37.4" height="37.4"/>
			
				<rect x="37.4" y="2150.4" transform="matrix(3.464102e-07 1 -1 3.464102e-07 2225.21 2112.979)" class="st4" width="37.4" height="37.4"/>
			
				<rect x="74.8" y="2150.4" transform="matrix(3.464102e-07 1 -1 3.464102e-07 2262.6199 2075.5691)" class="st4" width="37.4" height="37.4"/>
			
				<rect x="112.2" y="2150.4" transform="matrix(3.464102e-07 1 -1 3.464102e-07 2300.0298 2038.1591)" class="st4" width="37.4" height="37.4"/>
			
				<rect x="149.6" y="2150.4" transform="matrix(3.464102e-07 1 -1 3.464102e-07 2337.4397 2000.7491)" class="st4" width="37.4" height="37.4"/>
			
				<rect x="187.1" y="2075.6" transform="matrix(3.464103e-07 1 -1 3.464103e-07 2300.1267 1888.4222)" class="st4" width="37.4" height="37.4"/>
			
				<rect x="224.5" y="1888.5" transform="matrix(3.464102e-07 1 -1 3.464102e-07 2150.3896 1664.0597)" class="st4" width="37.4" height="37.4"/>
			
				<rect x="224.5" y="1925.9" transform="matrix(3.464103e-07 1 -1 3.464103e-07 2187.7998 1701.4696)" class="st4" width="37.4" height="37.4"/>
			
				<rect x="224.5" y="1963.3" transform="matrix(3.464102e-07 1 -1 3.464102e-07 2225.2097 1738.8795)" class="st4" width="37.4" height="37.4"/>
			
				<rect x="224.5" y="2000.8" transform="matrix(3.464102e-07 1 -1 3.464102e-07 2262.6196 1776.2894)" class="st4" width="37.4" height="37.4"/>
			
				<rect x="224.5" y="2038.2" transform="matrix(3.464103e-07 1 -1 3.464103e-07 2300.0295 1813.6993)" class="st4" width="37.4" height="37.4"/>
			
				<rect x="224.5" y="2075.6" transform="matrix(3.464102e-07 1 -1 3.464102e-07 2337.4397 1851.1094)" class="st4" width="37.4" height="37.4"/>
		</g>
		<g>
			
				<rect x="149.6" y="1851.1" transform="matrix(3.464102e-07 -1 1 3.464102e-07 -1701.4702 2038.1592)" class="st4" width="37.4" height="37.4"/>
			
				<rect x="149.6" y="1813.7" transform="matrix(3.464102e-07 -1 1 3.464102e-07 -1664.0603 2000.7493)" class="st4" width="37.4" height="37.4"/>
			
				<rect x="149.6" y="1776.3" transform="matrix(3.464102e-07 -1 1 3.464102e-07 -1626.6503 1963.3394)" class="st4" width="37.4" height="37.4"/>
			
				<rect x="74.8" y="1738.9" transform="matrix(3.464102e-07 -1 1 3.464102e-07 -1664.0602 1851.1095)" class="st4" width="37.4" height="37.4"/>
			
				<rect x="112.2" y="1738.9" transform="matrix(3.464102e-07 -1 1 3.464102e-07 -1626.6503 1888.5194)" class="st4" width="37.4" height="37.4"/>
			
				<rect x="149.6" y="1738.9" transform="matrix(3.464102e-07 -1 1 3.464102e-07 -1589.2404 1925.9294)" class="st4" width="37.4" height="37.4"/>
			
				<rect x="74.8" y="1701.5" transform="matrix(3.464102e-07 -1 1 3.464102e-07 -1626.6503 1813.6995)" class="st4" width="37.4" height="37.4"/>
			
				<rect x="0" y="1664.1" transform="matrix(3.464102e-07 -1 1 3.464102e-07 -1664.0602 1701.4696)" class="st4" width="37.4" height="37.4"/>
			
				<rect x="37.4" y="1664.1" transform="matrix(3.464102e-07 -1 1 3.464102e-07 -1626.6503 1738.8796)" class="st4" width="37.4" height="37.4"/>
			
				<rect x="299.3" y="1851.1" transform="matrix(3.464103e-07 -1 1 3.464103e-07 -1551.8306 2187.7991)" class="st4" width="37.4" height="37.4"/>
			
				<rect x="299.3" y="1738.9" transform="matrix(3.464103e-07 -1 1 3.464103e-07 -1439.6006 2075.5693)" class="st4" width="37.4" height="37.4"/>
			
				<rect x="0" y="1514.4" transform="matrix(3.464102e-07 -1 1 3.464102e-07 -1514.4203 1551.83)" class="st4" width="37.4" height="37.4"/>
			
				<rect x="112.2" y="1514.4" transform="matrix(3.464102e-07 -1 1 3.464102e-07 -1402.1904 1664.0598)" class="st4" width="37.4" height="37.4"/>
			<path class="st4" d="M224.5,1600.6v14.7c0,6.3,5.1,11.3,11.3,11.3h14.7c6.3,0,11.3-5.1,11.3-11.3v-14.7c0-6.3-5.1-11.3-11.3-11.3
				h-14.7C229.5,1589.2,224.5,1594.3,224.5,1600.6z"/>
			
				<rect x="0" y="1851.1" transform="matrix(3.464102e-07 -1 1 3.464102e-07 -1851.11 1888.5193)" class="st4" width="37.4" height="37.4"/>
			
				<rect x="37.4" y="1851.1" transform="matrix(3.464102e-07 -1 1 3.464102e-07 -1813.7001 1925.9293)" class="st4" width="37.4" height="37.4"/>
			
				<rect x="37.4" y="1813.7" transform="matrix(3.464102e-07 -1 1 3.464102e-07 -1776.29 1888.5193)" class="st4" width="37.4" height="37.4"/>
			
				<rect x="74.8" y="1813.7" transform="matrix(3.464102e-07 -1 1 3.464102e-07 -1738.8801 1925.9293)" class="st4" width="37.4" height="37.4"/>
			
				<rect x="0" y="1776.3" transform="matrix(3.464102e-07 -1 1 3.464102e-07 -1776.29 1813.6995)" class="st4" width="37.4" height="37.4"/>
			
				<rect x="0" y="1738.9" transform="matrix(3.464102e-07 -1 1 3.464102e-07 -1738.8801 1776.2896)" class="st4" width="37.4" height="37.4"/>
			
				<rect x="74.8" y="1851.1" transform="matrix(3.464103e-07 -1 1 3.464103e-07 -1776.2902 1963.3392)" class="st4" width="37.4" height="37.4"/>
			
				<rect x="0" y="1813.7" transform="matrix(3.464102e-07 -1 1 3.464102e-07 -1813.7001 1851.1094)" class="st4" width="37.4" height="37.4"/>
			
				<rect x="74.8" y="1664.1" transform="matrix(3.464102e-07 -1 1 3.464102e-07 -1589.2402 1776.2896)" class="st4" width="37.4" height="37.4"/>
			
				<rect x="149.6" y="1664.1" transform="matrix(3.464102e-07 -1 1 3.464102e-07 -1514.4204 1851.1095)" class="st4" width="37.4" height="37.4"/>
			
				<rect x="149.6" y="1626.7" transform="matrix(3.464102e-07 -1 1 3.464102e-07 -1477.0105 1813.6996)" class="st4" width="37.4" height="37.4"/>
			
				<rect x="0" y="1589.2" transform="matrix(3.464102e-07 -1 1 3.464102e-07 -1589.2402 1626.6498)" class="st4" width="37.4" height="37.4"/>
			
				<rect x="37.4" y="1589.2" transform="matrix(3.464102e-07 -1 1 3.464102e-07 -1551.8303 1664.0598)" class="st4" width="37.4" height="37.4"/>
			
				<rect x="74.8" y="1589.2" transform="matrix(3.464102e-07 -1 1 3.464102e-07 -1514.4203 1701.4697)" class="st4" width="37.4" height="37.4"/>
			
				<rect x="112.2" y="1589.2" transform="matrix(3.464102e-07 -1 1 3.464102e-07 -1477.0104 1738.8796)" class="st4" width="37.4" height="37.4"/>
			
				<rect x="149.6" y="1589.2" transform="matrix(3.464102e-07 -1 1 3.464102e-07 -1439.6005 1776.2897)" class="st4" width="37.4" height="37.4"/>
			
				<rect x="187.1" y="1664.1" transform="matrix(3.464103e-07 -1 1 3.464103e-07 -1476.9135 1888.6166)" class="st4" width="37.4" height="37.4"/>
			
				<rect x="224.5" y="1851.1" transform="matrix(3.464102e-07 -1 1 3.464102e-07 -1626.6504 2112.979)" class="st4" width="37.4" height="37.4"/>
			
				<rect x="224.5" y="1813.7" transform="matrix(3.464103e-07 -1 1 3.464103e-07 -1589.2405 2075.5691)" class="st4" width="37.4" height="37.4"/>
			
				<rect x="224.5" y="1776.3" transform="matrix(3.464102e-07 -1 1 3.464102e-07 -1551.8304 2038.1593)" class="st4" width="37.4" height="37.4"/>
			
				<rect x="224.5" y="1738.9" transform="matrix(3.464102e-07 -1 1 3.464102e-07 -1514.4205 2000.7494)" class="st4" width="37.4" height="37.4"/>
			
				<rect x="224.5" y="1701.5" transform="matrix(3.464103e-07 -1 1 3.464103e-07 -1477.0105 1963.3394)" class="st4" width="37.4" height="37.4"/>
			
				<rect x="224.5" y="1664.1" transform="matrix(3.464102e-07 -1 1 3.464102e-07 -1439.6006 1925.9294)" class="st4" width="37.4" height="37.4"/>
		</g>
	</g>
	<g>
		
			<rect x="1732.9" y="5362.6" transform="matrix(-1.058846e-06 -1 1 -1.058846e-06 -3629.6379 7132.9556)" class="st4" width="37.4" height="37.4"/>
		
			<rect x="1732.9" y="5325.2" transform="matrix(-1.058846e-06 -1 1 -1.058846e-06 -3592.228 7095.5454)" class="st4" width="37.4" height="37.4"/>
		
			<rect x="1732.9" y="5287.8" transform="matrix(-1.058846e-06 -1 1 -1.058846e-06 -3554.8181 7058.1353)" class="st4" width="37.4" height="37.4"/>
		
			<rect x="1807.8" y="5250.4" transform="matrix(-1.058846e-06 -1 1 -1.058846e-06 -3442.5881 7095.5454)" class="st4" width="37.4" height="37.4"/>
		
			<rect x="1770.4" y="5250.4" transform="matrix(-1.058846e-06 -1 1 -1.058846e-06 -3479.9983 7058.1353)" class="st4" width="37.4" height="37.4"/>
		
			<rect x="1732.9" y="5250.4" transform="matrix(-1.058846e-06 -1 1 -1.058846e-06 -3517.4082 7020.7256)" class="st4" width="37.4" height="37.4"/>
		
			<rect x="1807.8" y="5213" transform="matrix(-1.058846e-06 -1 1 -1.058846e-06 -3405.1782 7058.1353)" class="st4" width="37.4" height="37.4"/>
		
			<rect x="1882.6" y="5175.5" transform="matrix(-1.058846e-06 -1 1 -1.058846e-06 -3292.9482 7095.5449)" class="st4" width="37.4" height="37.4"/>
		
			<rect x="1845.2" y="5175.5" transform="matrix(-1.058846e-06 -1 1 -1.058846e-06 -3330.3584 7058.1353)" class="st4" width="37.4" height="37.4"/>
		
			<rect x="1583.3" y="5362.6" transform="matrix(-1.058846e-06 -1 1 -1.058846e-06 -3779.2781 6983.3159)" class="st4" width="37.4" height="37.4"/>
		
			<rect x="1583.3" y="5250.4" transform="matrix(-1.058846e-06 -1 1 -1.058846e-06 -3667.0483 6871.0859)" class="st4" width="37.4" height="37.4"/>
		
			<rect x="1882.6" y="5025.9" transform="matrix(-1.058846e-06 -1 1 -1.058846e-06 -3143.3086 6945.9048)" class="st4" width="37.4" height="37.4"/>
		
			<rect x="1770.4" y="5025.9" transform="matrix(-1.058846e-06 -1 1 -1.058846e-06 -3255.5388 6833.6753)" class="st4" width="37.4" height="37.4"/>
		<path class="st4" d="M1695.5,5112.1v14.7c0,6.3-5.1,11.3-11.3,11.3h-14.7c-6.3,0-11.3-5.1-11.3-11.3v-14.7
			c0-6.3,5.1-11.3,11.3-11.3h14.7C1690.5,5100.7,1695.5,5105.8,1695.5,5112.1z"/>
		
			<rect x="1882.6" y="5362.6" transform="matrix(-1.058846e-06 -1 1 -1.058846e-06 -3479.9978 7282.5952)" class="st4" width="37.4" height="37.4"/>
		
			<rect x="1845.2" y="5362.6" transform="matrix(-1.058846e-06 -1 1 -1.058846e-06 -3517.408 7245.1851)" class="st4" width="37.4" height="37.4"/>
		
			<rect x="1845.2" y="5325.2" transform="matrix(-1.058846e-06 -1 1 -1.058846e-06 -3479.998 7207.7754)" class="st4" width="37.4" height="37.4"/>
		
			<rect x="1807.8" y="5325.2" transform="matrix(-1.058846e-06 -1 1 -1.058846e-06 -3517.408 7170.3652)" class="st4" width="37.4" height="37.4"/>
		
			<rect x="1882.6" y="5287.8" transform="matrix(-1.058846e-06 -1 1 -1.058846e-06 -3405.178 7207.7749)" class="st4" width="37.4" height="37.4"/>
		
			<rect x="1882.6" y="5250.4" transform="matrix(-1.058846e-06 -1 1 -1.058846e-06 -3367.7681 7170.3652)" class="st4" width="37.4" height="37.4"/>
		
			<rect x="1807.8" y="5362.6" transform="matrix(-1.058846e-06 -1 1 -1.058846e-06 -3554.8179 7207.7754)" class="st4" width="37.4" height="37.4"/>
		
			<rect x="1882.6" y="5325.2" transform="matrix(-1.058846e-06 -1 1 -1.058846e-06 -3442.5879 7245.1851)" class="st4" width="37.4" height="37.4"/>
		
			<rect x="1807.8" y="5175.5" transform="matrix(-1.058846e-06 -1 1 -1.058846e-06 -3367.7683 7020.7251)" class="st4" width="37.4" height="37.4"/>
		
			<rect x="1732.9" y="5175.5" transform="matrix(-1.058846e-06 -1 1 -1.058846e-06 -3442.5884 6945.9053)" class="st4" width="37.4" height="37.4"/>
		
			<rect x="1732.9" y="5138.1" transform="matrix(-1.058846e-06 -1 1 -1.058846e-06 -3405.1785 6908.4951)" class="st4" width="37.4" height="37.4"/>
		
			<rect x="1882.6" y="5100.7" transform="matrix(-1.058846e-06 -1 1 -1.058846e-06 -3218.1284 7020.7251)" class="st4" width="37.4" height="37.4"/>
		
			<rect x="1845.2" y="5100.7" transform="matrix(-1.058846e-06 -1 1 -1.058846e-06 -3255.5386 6983.3149)" class="st4" width="37.4" height="37.4"/>
		
			<rect x="1807.8" y="5100.7" transform="matrix(-1.058846e-06 -1 1 -1.058846e-06 -3292.9485 6945.9053)" class="st4" width="37.4" height="37.4"/>
		
			<rect x="1770.4" y="5100.7" transform="matrix(-1.058846e-06 -1 1 -1.058846e-06 -3330.3586 6908.4951)" class="st4" width="37.4" height="37.4"/>
		
			<rect x="1732.9" y="5100.7" transform="matrix(-1.058846e-06 -1 1 -1.058846e-06 -3367.7686 6871.0854)" class="st4" width="37.4" height="37.4"/>
		
			<rect x="1695.4" y="5175.5" transform="matrix(-1.058846e-06 -1 1 -1.058846e-06 -3480.0955 6908.3984)" class="st4" width="37.4" height="37.4"/>
		
			<rect x="1658.1" y="5362.6" transform="matrix(-1.058846e-06 -1 1 -1.058846e-06 -3704.458 7058.1357)" class="st4" width="37.4" height="37.4"/>
		
			<rect x="1658.1" y="5325.2" transform="matrix(-1.058846e-06 -1 1 -1.058846e-06 -3667.0481 7020.7256)" class="st4" width="37.4" height="37.4"/>
		
			<rect x="1658.1" y="5287.8" transform="matrix(-1.058846e-06 -1 1 -1.058846e-06 -3629.6382 6983.3154)" class="st4" width="37.4" height="37.4"/>
		
			<rect x="1658.1" y="5250.4" transform="matrix(-1.058846e-06 -1 1 -1.058846e-06 -3592.2283 6945.9058)" class="st4" width="37.4" height="37.4"/>
		
			<rect x="1658.1" y="5213" transform="matrix(-1.058846e-06 -1 1 -1.058846e-06 -3554.8184 6908.4956)" class="st4" width="37.4" height="37.4"/>
		
			<rect x="1658.1" y="5175.5" transform="matrix(-1.058846e-06 -1 1 -1.058846e-06 -3517.4084 6871.0854)" class="st4" width="37.4" height="37.4"/>
	</g>
	<polygon class="st5" points="1251.8,2853.2 1174.6,2909 1176.8,3004.3 1099.8,2948.1 1009.9,2979.6 1039.6,2889 981.8,2813.2 
		1077.1,2813.5 1131.3,2735.1 1160.5,2825.8 	"/>
	<g>
		<path class="st5" d="M1222.1,3235.2h-169.6c-30.9,0-55.9-25-55.9-55.9v0c0-30.9,25-55.9,55.9-55.9h169.6c30.9,0,55.9,25,55.9,55.9
			v0C1277.9,3210.2,1252.9,3235.2,1222.1,3235.2z"/>
		<rect x="1041.7" y="3232" class="st5" width="191.1" height="92.8"/>
	</g>
	<path class="st5" d="M1141.1,3523.5h-7.6c-25.6,0-46.4-20.8-46.4-46.4v0c0-25.6,20.8-46.4,46.4-46.4h7.6
		c25.6,0,46.4,20.8,46.4,46.4v0C1187.5,3502.7,1166.7,3523.5,1141.1,3523.5z"/>
	<g>
		<rect x="1105.2" y="4415.1" class="st5" width="35.6" height="35.6"/>
		<rect x="1105.2" y="4379.6" class="st5" width="35.6" height="35.6"/>
		<rect x="1105.2" y="4344" class="st5" width="35.6" height="35.6"/>
		<rect x="1035.7" y="4450.7" class="st5" width="35.6" height="35.6"/>
		<rect x="1035.7" y="4415.1" class="st5" width="35.6" height="35.6"/>
		<rect x="1035.7" y="4379.6" class="st5" width="35.6" height="35.6"/>
		<rect x="1035.7" y="4344" class="st5" width="35.6" height="35.6"/>
	</g>
	<g>
		<rect x="1604.1" y="4471.2" class="st5" width="36.8" height="36.8"/>
		<rect x="1604.1" y="4508" class="st5" width="36.8" height="36.8"/>
		<rect x="1604.1" y="4541.3" class="st5" width="36.8" height="36.8"/>
		<rect x="1567.3" y="4541.3" class="st5" width="36.8" height="36.8"/>
		<rect x="1567.3" y="4576.8" class="st5" width="36.8" height="36.8"/>
		<rect x="1530.5" y="4576.8" class="st5" width="36.8" height="36.8"/>
		<rect x="1530.5" y="4541.3" class="st5" width="36.8" height="36.8"/>
		<rect x="1493.7" y="4541.3" class="st5" width="36.8" height="36.8"/>
		<rect x="1456.2" y="4541.3" class="st5" width="36.8" height="36.8"/>
		<rect x="1456.9" y="4578" class="st5" width="36.8" height="36.8"/>
		<rect x="1420.2" y="4578" class="st5" width="36.8" height="36.8"/>
		<rect x="1418.6" y="4541.3" class="st5" width="36.8" height="36.8"/>
		<rect x="1384.5" y="4541.3" class="st5" width="36.8" height="36.8"/>
		<rect x="1384.5" y="4505.6" class="st5" width="36.8" height="36.8"/>
		<rect x="1384.5" y="4468.8" class="st5" width="36.8" height="36.8"/>
		<rect x="1420.2" y="4468.8" class="st5" width="36.8" height="36.8"/>
		<rect x="1420.2" y="4432.1" class="st5" width="36.8" height="36.8"/>
		<rect x="1456.9" y="4432.1" class="st5" width="36.8" height="36.8"/>
		<rect x="1567.3" y="4471.2" class="st5" width="36.8" height="36.8"/>
		<rect x="1567.3" y="4434.4" class="st5" width="36.8" height="36.8"/>
		<rect x="1530.5" y="4434.4" class="st5" width="36.8" height="36.8"/>
	</g>
	<circle class="st5" cx="920.1" cy="5314.7" r="62"/>
	<circle class="st5" cx="362.3" cy="4951.4" r="62"/>
	<circle class="st5" cx="1684.9" cy="4361.8" r="31"/>
	<circle class="st5" cx="163.6" cy="4379.6" r="31"/>
	<g>
		<circle class="st5" cx="1212.2" cy="4856.4" r="62"/>
		<circle class="st5" cx="997.4" cy="4826.5" r="62"/>
		<circle class="st5" cx="1088.2" cy="4675.3" r="62"/>
		<circle class="st5" cx="1212.2" cy="4728.5" r="31"/>
		<circle class="st5" cx="1112.2" cy="4922.4" r="38"/>
	</g>
	<g>
		<polygon class="st5" points="1264,5055.4 1264,5208.6 1128.2,5132 		"/>
		<polygon class="st5" points="1128.2,5293.6 1128.2,5140.5 1264,5217.1 		"/>
		<polygon class="st5" points="1264,5225.6 1264,5378.7 1128.2,5302.1 		"/>
		<polygon class="st5" points="1270.3,5378.7 1270.3,5225.6 1406,5302.1 		"/>
		<polygon class="st5" points="1406,5140.5 1406,5293.6 1270.3,5217.1 		"/>
		<polygon class="st5" points="1270.3,5208.6 1270.3,5055.4 1406,5132 		"/>
	</g>
	<g>
		<polygon class="st5" points="356,4030.4 356,4183.5 220.2,4107 		"/>
		<polygon class="st5" points="356,4200.6 356,4353.7 220.2,4277.1 		"/>
		<polygon class="st5" points="362.3,4353.7 362.3,4200.6 498,4277.1 		"/>
		<polygon class="st5" points="362.3,4183.5 362.3,4030.4 498,4107 		"/>
	</g>
	<g>
		<circle class="st5" cx="766.5" cy="3604.7" r="31"/>
		<polygon class="st5" points="605.8,3609 758.9,3609 682.3,3744.7 		"/>
		<polygon class="st5" points="775.9,3609 929.1,3609 852.5,3744.7 		"/>
		<polygon class="st5" points="929.1,3602.7 775.9,3602.7 852.5,3466.9 		"/>
		<polygon class="st5" points="758.9,3602.7 605.8,3602.7 682.3,3466.9 		"/>
		<circle class="st5" cx="1188.8" cy="3725.1" r="31"/>
		<polygon class="st5" points="1349.5,3720.9 1196.4,3720.9 1272.9,3585.1 		"/>
		<polygon class="st5" points="1179.4,3720.9 1026.2,3720.9 1102.8,3585.1 		"/>
		<polygon class="st5" points="1026.2,3727.2 1179.4,3727.2 1102.8,3862.9 		"/>
		<polygon class="st5" points="1196.4,3727.2 1349.5,3727.2 1272.9,3862.9 		"/>
	</g>
	<g>
		<g>
			<rect x="493" y="4627.1" class="st5" width="35.6" height="35.6"/>
			<rect x="457.5" y="4627.1" class="st5" width="35.6" height="35.6"/>
			<rect x="421.9" y="4627.1" class="st5" width="35.6" height="35.6"/>
			<rect x="528.6" y="4696.6" class="st5" width="35.6" height="35.6"/>
			<rect x="493" y="4696.6" class="st5" width="35.6" height="35.6"/>
			<rect x="457.5" y="4696.6" class="st5" width="35.6" height="35.6"/>
			<rect x="421.9" y="4696.6" class="st5" width="35.6" height="35.6"/>
		</g>
		<g>
			<rect x="273.7" y="4627.1" class="st5" width="35.6" height="35.6"/>
			<rect x="309.3" y="4627.1" class="st5" width="35.6" height="35.6"/>
			<rect x="344.8" y="4627.1" class="st5" width="35.6" height="35.6"/>
			<rect x="238.1" y="4696.6" class="st5" width="35.6" height="35.6"/>
			<rect x="273.7" y="4696.6" class="st5" width="35.6" height="35.6"/>
			<rect x="309.3" y="4696.6" class="st5" width="35.6" height="35.6"/>
			<rect x="344.8" y="4696.6" class="st5" width="35.6" height="35.6"/>
		</g>
	</g>
	<g>
		<rect x="1514.5" y="5003" class="st5" width="35.6" height="35.6"/>
		<rect x="1550.1" y="5003" class="st5" width="35.6" height="35.6"/>
		<rect x="1585.7" y="5003" class="st5" width="35.6" height="35.6"/>
		<rect x="1479" y="4933.6" class="st5" width="35.6" height="35.6"/>
		<rect x="1514.5" y="4933.6" class="st5" width="35.6" height="35.6"/>
		<rect x="1550.1" y="4933.6" class="st5" width="35.6" height="35.6"/>
		<rect x="1585.7" y="4933.6" class="st5" width="35.6" height="35.6"/>
		<rect x="1443.4" y="4862.4" class="st5" width="35.6" height="35.6"/>
		<rect x="1479" y="4862.5" class="st5" width="35.6" height="35.6"/>
		<rect x="1514.5" y="4862.4" class="st5" width="35.6" height="35.6"/>
		<rect x="1550.1" y="4862.4" class="st5" width="35.6" height="35.6"/>
		<rect x="1585.7" y="4862.4" class="st5" width="35.6" height="35.6"/>
		<rect x="1479" y="4791.3" class="st5" width="35.6" height="35.6"/>
		<rect x="1514.5" y="4791.3" class="st5" width="35.6" height="35.6"/>
		<rect x="1550.1" y="4791.3" class="st5" width="35.6" height="35.6"/>
		<rect x="1585.7" y="4791.3" class="st5" width="35.6" height="35.6"/>
		<rect x="1550.1" y="4721.9" class="st5" width="35.6" height="35.6"/>
		<rect x="1585.7" y="4721.9" class="st5" width="35.6" height="35.6"/>
		<rect x="1621.2" y="4721.9" class="st5" width="35.6" height="35.6"/>
	</g>
	<g>
		<polygon class="st5" points="255.6,5144.8 404.5,5109.2 361.6,5259 		"/>
		
			<rect x="145.7" y="5307.3" transform="matrix(0.9999 -1.230030e-02 1.230030e-02 0.9999 -65.4951 2.4209)" class="st5" width="36.8" height="36.8"/>
		<g>
			
				<rect x="145.2" y="5270.6" transform="matrix(0.9999 -1.230030e-02 1.230030e-02 0.9999 -65.044 2.4126)" class="st5" width="36.8" height="36.8"/>
			
				<rect x="182.5" y="5306.8" transform="matrix(0.9999 -1.230030e-02 1.230030e-02 0.9999 -65.4867 2.8734)" class="st5" width="36.8" height="36.8"/>
			
				<rect x="182.9" y="5343.6" transform="matrix(0.9999 -1.230030e-02 1.230030e-02 0.9999 -65.9391 2.8818)" class="st5" width="36.8" height="36.8"/>
			
				<rect x="219.7" y="5343.2" transform="matrix(0.9999 -1.230030e-02 1.230030e-02 0.9999 -65.9308 3.3342)" class="st5" width="36.8" height="36.8"/>
			
				<rect x="145.7" y="5307.3" transform="matrix(0.9999 -1.230030e-02 1.230030e-02 0.9999 -65.4953 2.4215)" class="st5" width="36.8" height="36.8"/>
		</g>
		<g>
			
				<rect x="219.7" y="5196.8" transform="matrix(0.9999 -1.230030e-02 1.230030e-02 0.9999 -64.1303 3.3231)" class="st5" width="36.8" height="36.8"/>
			
				<rect x="256.9" y="5233" transform="matrix(0.9999 -1.230030e-02 1.230030e-02 0.9999 -64.573 3.7839)" class="st5" width="36.8" height="36.8"/>
			
				<rect x="257.4" y="5269.8" transform="matrix(0.9999 -1.230030e-02 1.230030e-02 0.9999 -65.0254 3.7923)" class="st5" width="36.8" height="36.8"/>
			
				<rect x="294.2" y="5269.4" transform="matrix(0.9999 -1.230030e-02 1.230030e-02 0.9999 -65.0171 4.2447)" class="st5" width="36.8" height="36.8"/>
			
				<rect x="220.2" y="5233.5" transform="matrix(0.9999 -1.230030e-02 1.230030e-02 0.9999 -64.5816 3.3321)" class="st5" width="36.8" height="36.8"/>
		</g>
	</g>
	<g>
		<polygon class="st5" points="1614.3,3589.4 1763.2,3553.7 1720.4,3703.6 		"/>
		
			<rect x="1504.4" y="3751.8" transform="matrix(0.9999 -1.230030e-02 1.230030e-02 0.9999 -46.2596 19.0165)" class="st5" width="36.8" height="36.8"/>
		<g>
			
				<rect x="1504" y="3715.2" transform="matrix(0.9999 -1.230030e-02 1.230030e-02 0.9999 -45.8086 19.0081)" class="st5" width="36.8" height="36.8"/>
			
				<rect x="1541.2" y="3751.4" transform="matrix(0.9999 -1.230030e-02 1.230030e-02 0.9999 -46.2512 19.4689)" class="st5" width="36.8" height="36.8"/>
			
				<rect x="1541.7" y="3788.2" transform="matrix(0.9999 -1.230030e-02 1.230030e-02 0.9999 -46.7037 19.4773)" class="st5" width="36.8" height="36.8"/>
			
				<rect x="1578.5" y="3787.7" transform="matrix(0.9999 -1.230030e-02 1.230030e-02 0.9999 -46.6954 19.9297)" class="st5" width="36.8" height="36.8"/>
			
				<rect x="1504.5" y="3751.8" transform="matrix(0.9999 -1.230030e-02 1.230030e-02 0.9999 -46.2598 19.0171)" class="st5" width="36.8" height="36.8"/>
		</g>
		<g>
			
				<rect x="1578.5" y="3641.3" transform="matrix(0.9999 -1.230030e-02 1.230030e-02 0.9999 -44.8949 19.9186)" class="st5" width="36.8" height="36.8"/>
			
				<rect x="1615.7" y="3677.6" transform="matrix(0.9999 -1.230030e-02 1.230030e-02 0.9999 -45.3375 20.3794)" class="st5" width="36.8" height="36.8"/>
			
				<rect x="1616.2" y="3714.3" transform="matrix(0.9999 -1.230030e-02 1.230030e-02 0.9999 -45.79 20.3878)" class="st5" width="36.8" height="36.8"/>
			
				<rect x="1652.9" y="3713.9" transform="matrix(0.9999 -1.230030e-02 1.230030e-02 0.9999 -45.7817 20.8402)" class="st5" width="36.8" height="36.8"/>
			
				<rect x="1579" y="3678" transform="matrix(0.9999 -1.230030e-02 1.230030e-02 0.9999 -45.3461 19.9276)" class="st5" width="36.8" height="36.8"/>
		</g>
	</g>
	<g>
		<rect x="1685" y="4041.6" class="st5" width="56.3" height="56.3"/>
		<rect x="1685" y="4097.9" class="st5" width="56.3" height="56.3"/>
		<rect x="1684.9" y="4148.8" class="st5" width="56.3" height="56.3"/>
		<rect x="1628.7" y="4148.8" class="st5" width="56.3" height="56.3"/>
		<rect x="1628.7" y="4203.2" class="st5" width="56.3" height="56.3"/>
		<rect x="1572.4" y="4203.2" class="st5" width="56.3" height="56.3"/>
		<rect x="1628.7" y="4041.6" class="st5" width="56.3" height="56.3"/>
		<rect x="1628.7" y="3985.3" class="st5" width="56.3" height="56.3"/>
		<rect x="1572.4" y="3985.3" class="st5" width="56.3" height="56.3"/>
	</g>
	<g>
		<polygon class="st5" points="787.8,4904.4 634.7,4907.2 708.8,4770 		"/>
		<polygon class="st5" points="634.9,4915.9 788,4913.1 713.9,5050.2 		"/>
		<polygon class="st5" points="549.4,5048.8 625.8,4916.1 705.3,5050.2 		"/>
		<polygon class="st5" points="722.7,5050.4 799.1,4917.7 878.5,5051.8 		"/>
		<path class="st5" d="M666.3,5075.4h89.1c28.2,0,51.2,15,51.2,33.5v58.4c0,18.5-22.9,33.5-51.2,33.5h-89.1
			c-28.2,0-51.2-15-51.2-33.5v-58.4C615.2,5090.4,638.1,5075.4,666.3,5075.4z"/>
	</g>
	<g>
		<polygon class="st5" points="1369.1,4192 1369.1,4038.9 1504.9,4115.5 		"/>
		<polygon class="st5" points="1153.3,4038.9 1153.3,4192 1017.6,4115.5 		"/>
		<polygon class="st5" points="1184.3,4192 1337.4,4192 1260.8,4327.8 		"/>
		<polygon class="st5" points="1337.4,4038.8 1184.3,4038.9 1260.8,3903.1 		"/>
		<path class="st5" d="M1216.3,4052.7h89.1c28.2,0,51.2,15,51.2,33.5v58.4c0,18.5-22.9,33.5-51.2,33.5h-89.1
			c-28.2,0-51.2-15-51.2-33.5v-58.4C1165.1,4067.7,1188,4052.7,1216.3,4052.7z"/>
	</g>
	<polygon class="st5" points="643.3,4448.6 720.6,4392.8 718.4,4297.5 795.3,4353.7 885.3,4322.2 855.6,4412.7 913.3,4488.5 
		818,4488.3 763.8,4566.7 734.6,4475.9 	"/>
	<g>
		<path class="st5" d="M673.1,4066.5l169.6,0c30.9,0,55.9,25,55.9,55.9l0,0c0,30.9-25,55.9-55.9,55.9H673.1
			c-30.9,0-55.9-25-55.9-55.9l0,0C617.2,4091.5,642.2,4066.5,673.1,4066.5z"/>
		
			<rect x="662.3" y="3976.9" transform="matrix(-1 3.464102e-07 -3.464102e-07 -1 1515.7965 8046.6919)" class="st5" width="191.1" height="92.8"/>
	</g>
	<path class="st5" d="M452.8,3795h7.6c25.6,0,46.4,20.8,46.4,46.4l0,0c0,25.6-20.8,46.4-46.4,46.4h-7.6c-25.6,0-46.4-20.8-46.4-46.4
		l0,0C406.4,3815.8,427.1,3795,452.8,3795z"/>
	<circle class="st5" cx="1839.1" cy="91" r="31"/>
	<circle class="st5" cx="1781.9" cy="879.4" r="38"/>
	<circle class="st5" cx="599.6" cy="798.2" r="62"/>
	<circle class="st5" cx="692.5" cy="859.1" r="31"/>
	<circle class="st5" cx="699.5" cy="732.2" r="38"/>
	<polygon class="st5" points="988.4,700.8 1141.5,698 1067.4,835.1 	"/>
	<polygon class="st5" points="1141.4,689.3 988.3,692 1062.4,554.9 	"/>
	<polygon class="st5" points="1226.8,556.3 1150.4,689 1071,554.9 	"/>
	<polygon class="st5" points="1320.1,162.4 1355.8,311.3 1205.9,268.5 	"/>
	<polygon class="st5" points="1053.6,554.8 977.2,687.5 897.7,553.4 	"/>
	<g>
		<polygon class="st5" points="550.9,547.3 550.9,394.2 686.7,470.8 		"/>
		<polygon class="st5" points="686.7,309.1 686.7,462.3 550.9,385.7 		"/>
		<polygon class="st5" points="550.9,377.2 550.9,224.1 686.7,300.6 		"/>
		<polygon class="st5" points="544.6,224.1 544.6,377.2 408.9,300.6 		"/>
		<polygon class="st5" points="408.9,462.3 408.9,309.1 544.6,385.7 		"/>
		<polygon class="st5" points="544.6,394.2 544.6,547.3 408.9,470.8 		"/>
	</g>
	<g>
		<rect x="1262.4" y="926.1" class="st5" width="35.6" height="35.6"/>
		<rect x="1298" y="926.1" class="st5" width="35.6" height="35.6"/>
		<rect x="1333.5" y="926.1" class="st5" width="35.6" height="35.6"/>
		<rect x="1226.8" y="856.7" class="st5" width="35.6" height="35.6"/>
		<rect x="1262.4" y="856.7" class="st5" width="35.6" height="35.6"/>
		<rect x="1298" y="856.7" class="st5" width="35.6" height="35.6"/>
		<rect x="1333.5" y="856.7" class="st5" width="35.6" height="35.6"/>
	</g>
	<g>
		<rect x="754.4" y="2886.6" class="st5" width="35.6" height="35.6"/>
		<rect x="754.4" y="2922.2" class="st5" width="35.6" height="35.6"/>
		<rect x="754.4" y="2957.8" class="st5" width="35.6" height="35.6"/>
		<rect x="823.8" y="2851.1" class="st5" width="35.6" height="35.6"/>
		<rect x="823.8" y="2886.6" class="st5" width="35.6" height="35.6"/>
		<rect x="823.8" y="2922.2" class="st5" width="35.6" height="35.6"/>
		<rect x="823.8" y="2957.8" class="st5" width="35.6" height="35.6"/>
	</g>
	<g>
		<rect x="154.9" y="580.4" class="st5" width="35.6" height="35.6"/>
		<rect x="119.4" y="580.4" class="st5" width="35.6" height="35.6"/>
		<rect x="83.8" y="580.4" class="st5" width="35.6" height="35.6"/>
		<rect x="190.5" y="649.9" class="st5" width="35.6" height="35.6"/>
		<rect x="154.9" y="649.9" class="st5" width="35.6" height="35.6"/>
		<rect x="119.4" y="649.9" class="st5" width="35.6" height="35.6"/>
		<rect x="83.8" y="649.9" class="st5" width="35.6" height="35.6"/>
		<rect x="226.1" y="721" class="st5" width="35.6" height="35.6"/>
		<rect x="190.5" y="721" class="st5" width="35.6" height="35.6"/>
		<rect x="154.9" y="721" class="st5" width="35.6" height="35.6"/>
		<rect x="119.4" y="721" class="st5" width="35.6" height="35.6"/>
		<rect x="83.8" y="721" class="st5" width="35.6" height="35.6"/>
		<rect x="190.5" y="792.1" class="st5" width="35.6" height="35.6"/>
		<rect x="154.9" y="792.1" class="st5" width="35.6" height="35.6"/>
		<rect x="119.4" y="792.2" class="st5" width="35.6" height="35.6"/>
		<rect x="83.8" y="792.1" class="st5" width="35.6" height="35.6"/>
		<rect x="119.4" y="861.6" class="st5" width="35.6" height="35.6"/>
		<rect x="83.8" y="861.6" class="st5" width="35.6" height="35.6"/>
		<rect x="48.2" y="861.6" class="st5" width="35.6" height="35.6"/>
	</g>
	
		<rect x="1120.9" y="52.5" transform="matrix(0.9999 -1.230030e-02 1.230030e-02 0.9999 -0.7862 14.0185)" class="st5" width="36.8" height="36.8"/>
	<g>
		
			<rect x="1157.5" y="52.1" transform="matrix(0.9999 -1.230030e-02 1.230030e-02 0.9999 -0.7779 14.4696)" class="st5" width="36.8" height="36.8"/>
		
			<rect x="1121.3" y="89.3" transform="matrix(0.9999 -1.230030e-02 1.230030e-02 0.9999 -1.2386 14.0269)" class="st5" width="36.8" height="36.8"/>
		
			<rect x="1084.5" y="89.8" transform="matrix(0.9999 -1.230030e-02 1.230030e-02 0.9999 -1.247 13.5745)" class="st5" width="36.8" height="36.8"/>
		
			<rect x="1085" y="126.6" transform="matrix(0.9999 -1.230030e-02 1.230030e-02 0.9999 -1.6995 13.5828)" class="st5" width="36.8" height="36.8"/>
		
			<rect x="1120.9" y="52.6" transform="matrix(0.9999 -1.230030e-02 1.230030e-02 0.9999 -0.7868 14.0184)" class="st5" width="36.8" height="36.8"/>
	</g>
	<g>
		
			<rect x="1231.4" y="126.6" transform="matrix(0.9999 -1.230030e-02 1.230030e-02 0.9999 -1.6884 15.3833)" class="st5" width="36.8" height="36.8"/>
		
			<rect x="1195.1" y="163.8" transform="matrix(0.9999 -1.230030e-02 1.230030e-02 0.9999 -2.1492 14.9406)" class="st5" width="36.8" height="36.8"/>
		
			<rect x="1158.4" y="164.3" transform="matrix(0.9999 -1.230030e-02 1.230030e-02 0.9999 -2.1576 14.4882)" class="st5" width="36.8" height="36.8"/>
		
			<rect x="1158.8" y="201" transform="matrix(0.9999 -1.230030e-02 1.230030e-02 0.9999 -2.61 14.4965)" class="st5" width="36.8" height="36.8"/>
		
			<rect x="1194.7" y="127.1" transform="matrix(0.9999 -1.230030e-02 1.230030e-02 0.9999 -1.6973 14.9321)" class="st5" width="36.8" height="36.8"/>
	</g>
	<g>
		<rect x="101" y="369.4" class="st5" width="36.8" height="36.8"/>
		<rect x="101" y="332.7" class="st5" width="36.8" height="36.8"/>
		<rect x="101" y="299.4" class="st5" width="36.8" height="36.8"/>
		<rect x="137.8" y="299.4" class="st5" width="36.8" height="36.8"/>
		<rect x="137.8" y="263.9" class="st5" width="36.8" height="36.8"/>
		<rect x="174.5" y="263.8" class="st5" width="36.8" height="36.8"/>
		<rect x="137.8" y="369.5" class="st5" width="36.8" height="36.8"/>
		<rect x="137.8" y="406.2" class="st5" width="36.8" height="36.8"/>
		<rect x="174.5" y="406.2" class="st5" width="36.8" height="36.8"/>
	</g>
	<g>
		<rect x="254.3" y="2793.8" class="st5" width="36.8" height="36.8"/>
		<rect x="254.3" y="2757" class="st5" width="36.8" height="36.8"/>
		<rect x="254.3" y="2723.7" class="st5" width="36.8" height="36.8"/>
		<rect x="291.1" y="2723.7" class="st5" width="36.8" height="36.8"/>
		<rect x="291.1" y="2688.2" class="st5" width="36.8" height="36.8"/>
		<rect x="327.9" y="2688.2" class="st5" width="36.8" height="36.8"/>
		<rect x="327.9" y="2723.7" class="st5" width="36.8" height="36.8"/>
		<rect x="364.6" y="2723.7" class="st5" width="36.8" height="36.8"/>
		<rect x="402.2" y="2723.7" class="st5" width="36.8" height="36.8"/>
		<rect x="401.4" y="2686.9" class="st5" width="36.8" height="36.8"/>
		<rect x="438.2" y="2686.9" class="st5" width="36.8" height="36.8"/>
		<rect x="439.7" y="2723.7" class="st5" width="36.8" height="36.8"/>
		<rect x="473.9" y="2723.7" class="st5" width="36.8" height="36.8"/>
		<rect x="473.9" y="2759.4" class="st5" width="36.8" height="36.8"/>
		<rect x="473.9" y="2796.1" class="st5" width="36.8" height="36.8"/>
		<rect x="438.2" y="2796.1" class="st5" width="36.8" height="36.8"/>
		<rect x="438.2" y="2832.9" class="st5" width="36.8" height="36.8"/>
		<rect x="401.4" y="2832.9" class="st5" width="36.8" height="36.8"/>
		<rect x="291.1" y="2793.8" class="st5" width="36.8" height="36.8"/>
		<rect x="291.1" y="2830.5" class="st5" width="36.8" height="36.8"/>
		<rect x="327.9" y="2830.5" class="st5" width="36.8" height="36.8"/>
	</g>
	<path class="st5" d="M970.9,403.8h-88.2c-28,0-50.6-22.7-50.6-50.6v-88.2c0-27.9,22.7-50.6,50.6-50.6h88.2
		c28,0,50.6,22.7,50.6,50.6v88.2C1021.5,381.2,998.9,403.8,970.9,403.8z"/>
	<g>
		<rect x="34.3" y="2332.3" class="st6" width="42.3" height="2947.6"/>
		<rect x="55.5" y="2414.2" class="st5" width="42.3" height="2947.6"/>
	</g>
	<g>
		<rect x="1832.2" y="1963.3" class="st6" width="42.3" height="2947.6"/>
		<rect x="1853.3" y="2045.2" class="st5" width="42.3" height="2947.6"/>
	</g>
	<g>
		<rect x="1101.3" y="414.1" class="st6" width="791" height="42.3"/>
		<rect x="1123.3" y="392.9" class="st5" width="791" height="42.3"/>
	</g>
	<g>
		<rect x="153.7" y="78.5" class="st6" width="791" height="42.3"/>
		<rect x="175.6" y="57.4" class="st5" width="791" height="42.3"/>
	</g>
	<g>
		
			<rect x="1119.6" y="381.9" transform="matrix(8.305454e-03 -1 1 8.305454e-03 1099.5171 1914.6519)" class="st6" width="791" height="42.3"/>
		
			<rect x="1140.5" y="404" transform="matrix(8.305454e-03 -1 1 8.305454e-03 1098.136 1957.5686)" class="st5" width="791" height="42.3"/>
	</g>
	<circle class="st5" cx="1744" cy="1757.6" r="31"/>
	<circle class="st5" cx="1656.5" cy="3417.7" r="62"/>
	<circle class="st5" cx="939.5" cy="1871.2" r="62"/>
	<circle class="st5" cx="1532.9" cy="2350.4" r="62"/>
	<circle class="st5" cx="210.2" cy="2940" r="31"/>
	<circle class="st5" cx="1731.5" cy="2922.2" r="31"/>
	<g>
		<circle class="st5" cx="683" cy="2445.3" r="62"/>
		<circle class="st5" cx="897.7" cy="2475.3" r="62"/>
		<circle class="st5" cx="806.9" cy="2626.5" r="62"/>
		<circle class="st5" cx="775.9" cy="2506.3" r="31"/>
		<circle class="st5" cx="683" cy="2573.3" r="31"/>
		<circle class="st5" cx="782.9" cy="2379.4" r="38"/>
		<circle class="st5" cx="652" cy="2314.8" r="38"/>
	</g>
	<g>
		<polygon class="st5" points="1071.8,2347.9 1224.9,2345.2 1150.8,2482.3 		"/>
		<polygon class="st5" points="1224.8,2336.5 1071.6,2339.2 1145.7,2202.1 		"/>
		<polygon class="st5" points="1310.2,2203.5 1233.8,2336.2 1154.4,2202.1 		"/>
		<polygon class="st5" points="1137,2201.9 1060.6,2334.6 981.1,2200.5 		"/>
	</g>
	<g>
		<polygon class="st5" points="634.3,2194.5 634.3,2041.4 770.1,2118 		"/>
		<polygon class="st5" points="770.1,1956.3 770.1,2109.4 634.3,2032.9 		"/>
		<polygon class="st5" points="634.3,2024.4 634.3,1871.2 770.1,1947.8 		"/>
		<polygon class="st5" points="628,1871.2 628,2024.4 492.3,1947.8 		"/>
		<polygon class="st5" points="492.3,2109.4 492.3,1956.3 628,2032.9 		"/>
		<polygon class="st5" points="628,2041.4 628,2194.5 492.3,2118 		"/>
	</g>
	<g>
		<polygon class="st5" points="1539.2,3271.4 1539.2,3118.2 1674.9,3194.8 		"/>
		<polygon class="st5" points="1539.2,3101.2 1539.2,2948.1 1674.9,3024.6 		"/>
		<polygon class="st5" points="1532.9,2948.1 1532.9,3101.2 1397.1,3024.6 		"/>
		<polygon class="st5" points="1532.9,3118.2 1532.9,3271.4 1397.1,3194.8 		"/>
	</g>
	<g>
		<g>
			<rect x="1345.8" y="2573.3" class="st5" width="35.6" height="35.6"/>
			<rect x="1381.4" y="2573.3" class="st5" width="35.6" height="35.6"/>
			<rect x="1416.9" y="2573.3" class="st5" width="35.6" height="35.6"/>
			<rect x="1310.2" y="2503.9" class="st5" width="35.6" height="35.6"/>
			<rect x="1345.8" y="2503.9" class="st5" width="35.6" height="35.6"/>
			<rect x="1381.4" y="2503.9" class="st5" width="35.6" height="35.6"/>
			<rect x="1416.9" y="2503.9" class="st5" width="35.6" height="35.6"/>
		</g>
		<g>
			<rect x="1345.8" y="2705.4" class="st5" width="35.6" height="35.6"/>
			<rect x="1381.4" y="2705.4" class="st5" width="35.6" height="35.6"/>
			<rect x="1416.9" y="2705.4" class="st5" width="35.6" height="35.6"/>
			<rect x="1310.2" y="2635.9" class="st5" width="35.6" height="35.6"/>
			<rect x="1345.8" y="2635.9" class="st5" width="35.6" height="35.6"/>
			<rect x="1381.4" y="2635.9" class="st5" width="35.6" height="35.6"/>
			<rect x="1416.9" y="2635.9" class="st5" width="35.6" height="35.6"/>
		</g>
		<g>
			<rect x="1565.1" y="2573.3" class="st5" width="35.6" height="35.6"/>
			<rect x="1529.6" y="2573.3" class="st5" width="35.6" height="35.6"/>
			<rect x="1494" y="2573.3" class="st5" width="35.6" height="35.6"/>
			<rect x="1600.7" y="2503.9" class="st5" width="35.6" height="35.6"/>
			<rect x="1565.1" y="2503.9" class="st5" width="35.6" height="35.6"/>
			<rect x="1529.6" y="2503.9" class="st5" width="35.6" height="35.6"/>
			<rect x="1494" y="2503.9" class="st5" width="35.6" height="35.6"/>
		</g>
		<g>
			<rect x="1565.1" y="2705.4" class="st5" width="35.6" height="35.6"/>
			<rect x="1529.6" y="2705.4" class="st5" width="35.6" height="35.6"/>
			<rect x="1494" y="2705.4" class="st5" width="35.6" height="35.6"/>
			<rect x="1600.7" y="2635.9" class="st5" width="35.6" height="35.6"/>
			<rect x="1565.1" y="2636" class="st5" width="35.6" height="35.6"/>
			<rect x="1529.6" y="2635.9" class="st5" width="35.6" height="35.6"/>
			<rect x="1494" y="2636" class="st5" width="35.6" height="35.6"/>
		</g>
	</g>
	<g>
		<rect x="345" y="2263.2" class="st5" width="35.6" height="35.6"/>
		<rect x="309.5" y="2263.2" class="st5" width="35.6" height="35.6"/>
		<rect x="273.9" y="2263.2" class="st5" width="35.6" height="35.6"/>
		<rect x="380.6" y="2332.6" class="st5" width="35.6" height="35.6"/>
		<rect x="345" y="2332.6" class="st5" width="35.6" height="35.6"/>
		<rect x="309.5" y="2332.6" class="st5" width="35.6" height="35.6"/>
		<rect x="273.9" y="2332.6" class="st5" width="35.6" height="35.6"/>
		<rect x="416.2" y="2403.7" class="st5" width="35.6" height="35.6"/>
		<rect x="380.6" y="2403.7" class="st5" width="35.6" height="35.6"/>
		<rect x="345" y="2403.7" class="st5" width="35.6" height="35.6"/>
		<rect x="309.5" y="2403.8" class="st5" width="35.6" height="35.6"/>
		<rect x="273.9" y="2403.7" class="st5" width="35.6" height="35.6"/>
		<rect x="380.6" y="2474.9" class="st5" width="35.6" height="35.6"/>
		<rect x="345" y="2474.9" class="st5" width="35.6" height="35.6"/>
		<rect x="309.5" y="2474.9" class="st5" width="35.6" height="35.6"/>
		<rect x="273.9" y="2474.9" class="st5" width="35.6" height="35.6"/>
		<rect x="309.5" y="2544.3" class="st5" width="35.6" height="35.6"/>
		<rect x="273.9" y="2544.3" class="st5" width="35.6" height="35.6"/>
		<rect x="238.3" y="2544.3" class="st5" width="35.6" height="35.6"/>
	</g>
	<g>
		<polygon class="st5" points="1639.6,2156.9 1490.7,2192.6 1533.5,2042.7 		"/>
		
			<rect x="1712.7" y="1957.7" transform="matrix(0.9999 -1.229995e-02 1.229995e-02 0.9999 -24.1748 21.4416)" class="st5" width="36.8" height="36.8"/>
		<g>
			
				<rect x="1713.1" y="1994.4" transform="matrix(0.9999 -1.229995e-02 1.229995e-02 0.9999 -24.6258 21.4499)" class="st5" width="36.8" height="36.8"/>
			
				<rect x="1675.9" y="1958.1" transform="matrix(0.9999 -1.229995e-02 1.229995e-02 0.9999 -24.1832 20.9892)" class="st5" width="36.8" height="36.8"/>
			
				<rect x="1675.4" y="1921.4" transform="matrix(0.9999 -1.229995e-02 1.229995e-02 0.9999 -23.7307 20.9808)" class="st5" width="36.8" height="36.8"/>
			
				<rect x="1638.7" y="1921.8" transform="matrix(0.9999 -1.229995e-02 1.229995e-02 0.9999 -23.739 20.5283)" class="st5" width="36.8" height="36.8"/>
			
				<rect x="1712.6" y="1957.7" transform="matrix(0.9999 -1.229995e-02 1.229995e-02 0.9999 -24.1746 21.441)" class="st5" width="36.8" height="36.8"/>
		</g>
		<g>
			
				<rect x="1638.7" y="2068.2" transform="matrix(0.9999 -1.229995e-02 1.229995e-02 0.9999 -25.5395 20.5394)" class="st5" width="36.8" height="36.8"/>
			
				<rect x="1601.4" y="2032" transform="matrix(0.9999 -1.229995e-02 1.229995e-02 0.9999 -25.0968 20.0786)" class="st5" width="36.8" height="36.8"/>
			
				<rect x="1601" y="1995.2" transform="matrix(0.9999 -1.229995e-02 1.229995e-02 0.9999 -24.6444 20.0703)" class="st5" width="36.8" height="36.8"/>
			
				<rect x="1564.2" y="1995.6" transform="matrix(0.9999 -1.229995e-02 1.229995e-02 0.9999 -24.6527 19.6178)" class="st5" width="36.8" height="36.8"/>
			
				<rect x="1638.2" y="2031.5" transform="matrix(0.9999 -1.229995e-02 1.229995e-02 0.9999 -25.0882 20.5305)" class="st5" width="36.8" height="36.8"/>
		</g>
	</g>
	<g>
		<polygon class="st5" points="280.8,3712.4 131.9,3748.1 174.7,3598.2 		"/>
		
			<rect x="353.9" y="3513.2" transform="matrix(0.9999 -1.229995e-02 1.229995e-02 0.9999 -43.4097 4.8465)" class="st5" width="36.8" height="36.8"/>
		<g>
			
				<rect x="354.4" y="3549.8" transform="matrix(0.9999 -1.229995e-02 1.229995e-02 0.9999 -43.8607 4.8548)" class="st5" width="36.8" height="36.8"/>
			
				<rect x="317.1" y="3513.6" transform="matrix(0.9999 -1.229995e-02 1.229995e-02 0.9999 -43.4181 4.3941)" class="st5" width="36.8" height="36.8"/>
			
				<rect x="316.7" y="3476.8" transform="matrix(0.9999 -1.229995e-02 1.229995e-02 0.9999 -42.9656 4.3857)" class="st5" width="36.8" height="36.8"/>
			
				<rect x="279.9" y="3477.3" transform="matrix(0.9999 -1.229995e-02 1.229995e-02 0.9999 -42.9739 3.9333)" class="st5" width="36.8" height="36.8"/>
			
				<rect x="353.9" y="3513.1" transform="matrix(0.9999 -1.229995e-02 1.229995e-02 0.9999 -43.4095 4.8459)" class="st5" width="36.8" height="36.8"/>
		</g>
		<g>
			
				<rect x="279.9" y="3623.7" transform="matrix(0.9999 -1.229995e-02 1.229995e-02 0.9999 -44.7744 3.9443)" class="st5" width="36.8" height="36.8"/>
			
				<rect x="242.7" y="3587.4" transform="matrix(0.9999 -1.229995e-02 1.229995e-02 0.9999 -44.3317 3.4836)" class="st5" width="36.8" height="36.8"/>
			
				<rect x="242.2" y="3550.7" transform="matrix(0.9999 -1.229995e-02 1.229995e-02 0.9999 -43.8793 3.4752)" class="st5" width="36.8" height="36.8"/>
			
				<rect x="205.4" y="3551.1" transform="matrix(0.9999 -1.229995e-02 1.229995e-02 0.9999 -43.8876 3.0228)" class="st5" width="36.8" height="36.8"/>
			
				<rect x="279.4" y="3587" transform="matrix(0.9999 -1.229995e-02 1.229995e-02 0.9999 -44.3231 3.9354)" class="st5" width="36.8" height="36.8"/>
		</g>
	</g>
	<g>
		<rect x="153.9" y="3203.9" class="st5" width="56.3" height="56.3"/>
		<rect x="153.9" y="3147.6" class="st5" width="56.3" height="56.3"/>
		<rect x="153.9" y="3096.7" class="st5" width="56.3" height="56.3"/>
		<rect x="210.2" y="3096.7" class="st5" width="56.3" height="56.3"/>
		<rect x="210.2" y="3042.3" class="st5" width="56.3" height="56.3"/>
		<rect x="266.5" y="3042.3" class="st5" width="56.3" height="56.3"/>
		<rect x="210.2" y="3203.9" class="st5" width="56.3" height="56.3"/>
		<rect x="210.2" y="3260.2" class="st5" width="56.3" height="56.3"/>
		<rect x="266.5" y="3260.2" class="st5" width="56.3" height="56.3"/>
	</g>
	<path class="st5" d="M1193.5,2130.7h-89.1c-28.2,0-51.2-15-51.2-33.5v-58.4c0-18.5,22.9-33.5,51.2-33.5h89.1
		c28.2,0,51.2,15,51.2,33.5v58.4C1244.6,2115.7,1221.7,2130.7,1193.5,2130.7z"/>
	<g>
		<polygon class="st5" points="526,3109.7 526,3262.8 390.2,3186.3 		"/>
		<polygon class="st5" points="741.8,3262.8 741.8,3109.7 877.6,3186.3 		"/>
		<polygon class="st5" points="710.9,3109.7 557.7,3109.7 634.3,2974 		"/>
		<polygon class="st5" points="557.7,3262.9 710.9,3262.8 634.4,3398.6 		"/>
		<path class="st5" d="M678.9,3249h-89.1c-28.2,0-51.2-15-51.2-33.5v-58.4c0-18.5,22.9-33.5,51.2-33.5h89.1
			c28.2,0,51.2,15,51.2,33.5v58.4C730,3234,707.1,3249,678.9,3249z"/>
	</g>
</g>
</svg>
